# xmcd
#
# Track frame offsets:
#	150
#	11680
#	26025
#	42179
#	59183
#	74061
#	90392
#	102469
#	113210
#	127577
#	145065
#	159108
#	170801
#
# Disc length: 2511 seconds
#
# Revision: 0
# Processed by: cddbd v1.4PL0 Copyright (c) Steve Scherf et al.
# Submitted via: EasyCDDAExtractor 5.0.5.1
#
DISCID=b109cd0d
DTITLE=Gibson Brothers - Bona Fide
DYEAR=2003
DGENRE=Bluegrass
TTITLE0=The Open Road
TTITLE1=Arleigh
TTITLE2=Ragged Man
TTITLE3=Railroad Line
TTITLE4=That Bluegrass Music
TTITLE5=Vern's Guitar
TTITLE6=Where Nobody Knows My Name
TTITLE7=Shucking The Corn
TTITLE8=Don't Forget The Coffee, Billy Joe
TTITLE9=Whisper In My Ear
TTITLE10=Norma
TTITLE11=Beautiful Brown Eyes
TTITLE12=The Lighthouse
EXTD=
EXTT0=
EXTT1=
EXTT2=
EXTT3=
EXTT4=
EXTT5=
EXTT6=
EXTT7=
EXTT8=
EXTT9=
EXTT10=
EXTT11=
EXTT12=
PLAYORDER=
